<svg width="290" height="98" viewBox="0 0 290 98" fill="none" xmlns="http://www.w3.org/2000/svg">
<g clip-path="url(#clip0_1_2)">
<path d="M285.834 97.711H138.696V93.811H289.834L285.834 97.711Z" fill="#A08056"/>
<path fill-rule="evenodd" clip-rule="evenodd" d="M45.696 94.281L44.908 83.381C41.363 90.866 34.535 96.118 24.161 96.118C5.384 96.118 1.52588e-05 79.705 1.52588e-05 65.129C1.52588e-05 45.958 8.8 32.17 26.394 32.17C34.272 32.17 40.444 35.453 44.121 40.311V8.404H33.621V0.0039978H54.63V85.881H63.954V94.281H45.696ZM26.396 87.453C38.476 87.453 44.123 75.766 44.123 62.504C44.123 54.231 41.89 40.838 27.315 40.838C16.022 40.838 11.295 49.238 11.295 64.474C11.293 73.928 13.131 87.453 26.394 87.453H26.396ZM71.829 94.281V85.881H78.529L92.711 64.215L78.529 42.415H72.095V34.015H85.751L99.407 55.288L113.195 34.015H125.67V42.415H118.841L104.791 63.556L119.235 85.879H126.064V94.279H112.14L97.958 72.479L84.696 93.879V94.273L71.829 94.281Z" fill="#A08056"/>
<g clip-path="url(#clip1_1_2)">
<path d="M156.71 70.543H163.785V67.286H160.173V34H152.03V37.257H156.102V49.625C155.284 48.5975 154.236 47.7766 153.042 47.2284C151.849 46.6803 150.543 46.4201 149.231 46.469C142.41 46.469 139 51.813 139 59.243C139 64.892 141.087 71.254 148.365 71.254C150.046 71.3319 151.712 70.9031 153.146 70.0232C154.581 69.1433 155.718 67.8528 156.41 66.319L156.71 70.543ZM149.23 67.896C144.09 67.896 143.377 62.654 143.377 58.989C143.377 53.089 145.209 49.828 149.586 49.828C155.235 49.828 156.101 55.019 156.101 58.228C156.101 63.367 153.91 67.896 149.23 67.896ZM167.451 70.543H178.751V67.286H175.136V47.186H166.993V50.443H171.065V67.286H167.451V70.543ZM169.69 39.089C169.677 39.4733 169.743 39.8561 169.885 40.2138C170.026 40.5714 170.239 40.8962 170.511 41.1681C170.783 41.44 171.108 41.6532 171.465 41.7944C171.823 41.9356 172.206 42.0018 172.59 41.989C172.973 41.9976 173.354 41.9285 173.71 41.7858C174.066 41.6431 174.389 41.4298 174.66 41.1588C174.931 40.8878 175.144 40.5646 175.287 40.2089C175.429 39.8532 175.499 39.4722 175.49 39.089C175.494 38.707 175.422 38.3279 175.278 37.9742C175.134 37.6204 174.92 37.299 174.65 37.0288C174.38 36.7587 174.059 36.5452 173.705 36.401C173.351 36.2568 172.972 36.1847 172.59 36.189C172.207 36.1805 171.826 36.2498 171.47 36.3925C171.115 36.5353 170.792 36.7486 170.521 37.0196C170.25 37.2906 170.037 37.6137 169.894 37.9694C169.751 38.325 169.681 38.7059 169.69 39.089ZM201.297 45.243C201.34 46.5581 200.865 47.8375 199.974 48.806C198.089 47.1722 195.645 46.333 193.154 46.465C186.996 46.465 183.738 50.028 183.738 55.372C183.632 57.4957 184.321 59.5827 185.672 61.225C183.789 62.548 182.572 64.075 182.572 66.416C182.572 69.216 184.302 70.284 186.287 70.997C184.862 71.964 182.572 73.847 182.572 76.797C182.572 81.836 189.188 82.854 193.413 82.854C199.724 82.854 204.661 80.564 204.661 75.016C204.661 64.379 186.237 70.944 186.237 65.448C186.278 64.9162 186.454 64.4037 186.748 63.9585C187.042 63.5133 187.444 63.1501 187.917 62.903C189.499 63.6169 191.221 63.9649 192.956 63.921C198.856 63.921 202.474 60.821 202.474 55.167C202.507 53.69 202.193 52.2257 201.558 50.892C202.595 50.4698 203.48 49.7435 204.096 48.8087C204.712 47.8739 205.031 46.7744 205.01 45.655C205.013 45.0889 204.946 44.5246 204.81 43.975L201.298 43.466L201.297 45.243ZM189.697 71.76C194.939 72.32 200.843 71.811 200.843 75.628C200.843 78.528 197.433 79.598 193.361 79.598C190.307 79.598 186.236 78.987 186.236 76.035C186.232 74.004 188.064 72.681 189.693 71.765L189.697 71.76ZM193.005 60.817C189.493 60.817 188.119 58.781 188.119 55.269C188.119 51.655 189.595 49.569 193.107 49.569C196.568 49.569 198.095 51.605 198.095 55.169C198.091 58.786 196.564 60.822 193.001 60.822L193.005 60.817ZM207.91 70.543H219.21V67.286H215.599V47.186H207.455V50.443H211.527V67.286H207.91V70.543ZM210.149 39.089C210.136 39.4733 210.202 39.8561 210.344 40.2138C210.485 40.5714 210.698 40.8962 210.97 41.1681C211.242 41.44 211.567 41.6532 211.924 41.7944C212.282 41.9356 212.665 42.0018 213.049 41.989C213.432 41.9976 213.813 41.9285 214.169 41.7858C214.525 41.6431 214.848 41.4298 215.119 41.1588C215.39 40.8878 215.603 40.5646 215.746 40.2089C215.888 39.8532 215.958 39.4722 215.949 39.089C215.953 38.707 215.881 38.3279 215.737 37.9742C215.593 37.6204 215.379 37.299 215.109 37.0288C214.839 36.7587 214.518 36.5452 214.164 36.401C213.81 36.2568 213.431 36.1847 213.049 36.189C212.666 36.1809 212.286 36.2505 211.93 36.3934C211.575 36.5363 211.252 36.7497 210.982 37.0207C210.711 37.2917 210.498 37.6146 210.356 37.9701C210.213 38.3255 210.144 38.7062 210.153 39.089H210.149ZM225.88 63.672C225.88 67.387 227 71.052 231.631 71.052C235.143 71.052 236.771 68.965 237.84 66.37L234.74 64.996C234.231 66.828 233.417 67.696 232.14 67.696C230.511 67.696 229.951 66.373 229.951 63.472V50.443H236.567V47.182H229.951V40.26H226.236L225.982 47.182H221.554V50.443H225.88V63.672ZM245.373 54.511C245.373 54.311 245.322 54.155 245.322 53.951C245.322 50.951 247.409 49.828 250.615 49.828C254.229 49.828 255.297 51.508 255.297 55.528V56.851C246.492 56.902 240.792 59.599 240.792 64.943C240.792 69.218 244.406 71.254 248.172 71.254C249.736 71.2675 251.272 70.8401 252.604 70.0209C253.937 69.2017 255.011 68.0237 255.705 66.622C255.858 68.658 256.876 70.745 260.184 70.745C260.591 70.745 261.049 70.694 261.558 70.645L262.271 67.591C261.985 67.6319 261.695 67.6489 261.406 67.642C259.217 67.642 259.37 66.115 259.37 64.486V54.969C259.37 49.069 256.927 46.469 250.921 46.469C244.661 46.469 241.556 48.912 241.556 52.831C241.549 53.1542 241.566 53.4774 241.607 53.798L245.373 54.511ZM255.298 62.451C255.098 65.451 252.041 67.897 248.936 67.897C246.544 67.897 245.17 66.625 245.17 64.64C245.17 61.64 248.122 60.008 255.298 59.958V62.451ZM265.171 70.543H276.521V67.286H272.856V34H264.71V37.257H268.782V67.286H265.168L265.171 70.543Z" fill="#424242"/>
</g>
</g>
<defs>
<clipPath id="clip0_1_2">
<rect width="289.834" height="97.711" fill="white"/>
</clipPath>
<clipPath id="clip1_1_2">
<rect width="137.521" height="48.86" fill="white" transform="translate(139 34)"/>
</clipPath>
</defs>
</svg>
