<svg xmlns="http://www.w3.org/2000/svg" width="137.521" height="48.86" viewBox="0 0 137.521 48.86">
  <path id="Path_23" data-name="Path 23" d="M20,50h7.075V46.743H23.463V13.457H15.32v3.257h4.072V29.082a8.384,8.384,0,0,0-6.871-3.156C5.7,25.926,2.29,31.27,2.29,38.7c0,5.649,2.087,12.011,9.365,12.011A8.4,8.4,0,0,0,19.7,45.776ZM12.52,47.353c-5.14,0-5.853-5.242-5.853-8.907,0-5.9,1.832-9.161,6.209-9.161,5.649,0,6.515,5.191,6.515,8.4C19.391,42.824,17.2,47.353,12.52,47.353ZM30.741,50h11.3V46.743H38.426v-20.1H30.283V29.9h4.072V46.743H30.741Zm2.239-31.454a2.808,2.808,0,0,0,2.9,2.9,2.837,2.837,0,0,0,2.9-2.9,2.868,2.868,0,0,0-2.9-2.9A2.837,2.837,0,0,0,32.981,18.546ZM64.587,24.7a5.023,5.023,0,0,1-1.323,3.563,9.633,9.633,0,0,0-6.82-2.341c-6.158,0-9.416,3.563-9.416,8.907a8.542,8.542,0,0,0,1.934,5.853c-1.883,1.323-3.1,2.85-3.1,5.191,0,2.8,1.73,3.868,3.715,4.581-1.425.967-3.715,2.85-3.715,5.8,0,5.039,6.616,6.057,10.841,6.057,6.311,0,11.248-2.29,11.248-7.838,0-10.637-18.424-4.072-18.424-9.568a3.148,3.148,0,0,1,1.68-2.545,11.539,11.539,0,0,0,5.039,1.018c5.9,0,9.518-3.1,9.518-8.754a9.445,9.445,0,0,0-.916-4.275A5.543,5.543,0,0,0,68.3,25.112a6.855,6.855,0,0,0-.2-1.68l-3.512-.509Zm-11.6,26.517c5.242.56,11.146.051,11.146,3.868,0,2.9-3.41,3.97-7.482,3.97-3.054,0-7.125-.611-7.125-3.563C49.522,53.461,51.354,52.138,52.983,51.222Zm3.308-10.943c-3.512,0-4.886-2.036-4.886-5.548,0-3.614,1.476-5.7,4.988-5.7,3.461,0,4.988,2.036,4.988,5.6C61.381,38.243,59.854,40.279,56.291,40.279ZM71.2,50H82.5V46.743H78.889v-20.1H70.745V29.9h4.072V46.743H71.2Zm2.239-31.454a2.808,2.808,0,0,0,2.9,2.9,2.837,2.837,0,0,0,2.9-2.9,2.868,2.868,0,0,0-2.9-2.9A2.837,2.837,0,0,0,73.443,18.546ZM89.17,43.129c0,3.715,1.12,7.38,5.751,7.38,3.512,0,5.14-2.087,6.209-4.682l-3.1-1.374c-.509,1.832-1.323,2.7-2.6,2.7-1.629,0-2.189-1.323-2.189-4.224V29.9h6.616V26.639H93.241V19.717H89.526l-.254,6.922H84.844V29.9H89.17Zm19.493-9.161c0-.2-.051-.356-.051-.56,0-3,2.087-4.123,5.293-4.123,3.614,0,4.682,1.68,4.682,5.7v1.323c-8.805.051-14.505,2.748-14.505,8.092,0,4.275,3.614,6.311,7.38,6.311a8.325,8.325,0,0,0,7.533-4.632c.153,2.036,1.171,4.123,4.479,4.123.407,0,.865-.051,1.374-.1l.713-3.054a5.234,5.234,0,0,1-.865.051c-2.189,0-2.036-1.527-2.036-3.156V34.426c0-5.9-2.443-8.5-8.449-8.5-6.26,0-9.365,2.443-9.365,6.362a6.49,6.49,0,0,0,.051.967Zm9.925,7.94c-.2,3-3.257,5.446-6.362,5.446-2.392,0-3.766-1.272-3.766-3.257,0-3,2.952-4.632,10.128-4.682ZM128.461,50h11.35V46.743h-3.665V13.457H128v3.257h4.072V46.743h-3.614Z" transform="translate(-2.29 -13.457)" fill="#424242"/>
</svg>
