<?xml version="1.0" standalone="no"?>
<!DOCTYPE svg PUBLIC "-//W3C//DTD SVG 20010904//EN"
 "http://www.w3.org/TR/2001/REC-SVG-20010904/DTD/svg10.dtd">
<svg version="1.0" xmlns="http://www.w3.org/2000/svg"
 width="1207.000000pt" height="472.000000pt" viewBox="0 0 1207.000000 472.000000"
 preserveAspectRatio="xMidYMid meet">

<g transform="translate(0.000000,472.000000) scale(0.100000,-0.100000)"
fill="#000000" stroke="none">
<path d="M6230 2855 l0 -64 83 -3 82 -3 3 -252 c1 -139 0 -253 -4 -253 -3 0
-26 18 -52 40 -126 112 -368 104 -501 -16 -106 -95 -155 -233 -154 -434 0
-189 43 -318 135 -407 70 -68 124 -88 248 -88 95 0 111 3 167 29 59 27 116 77
154 136 16 24 17 23 24 -57 l7 -83 149 0 149 0 0 65 0 65 -75 0 -75 0 0 695 0
695 -170 0 -170 0 0 -65z m-9 -610 c127 -45 194 -209 169 -412 -26 -207 -126
-323 -280 -323 -108 0 -184 62 -220 179 -16 49 -20 92 -20 190 0 218 50 329
165 369 45 16 137 14 186 -3z"/>
<path d="M10920 2855 l0 -65 85 0 85 0 0 -630 0 -630 -75 0 -75 0 0 -65 0 -65
235 0 235 0 0 65 0 65 -75 0 -75 0 0 695 0 695 -170 0 -170 0 0 -65z"/>
<path d="M7002 2796 c-34 -31 -37 -39 -37 -86 0 -47 3 -55 37 -86 42 -38 88
-45 138 -19 42 22 60 53 60 105 0 52 -18 83 -60 105 -50 26 -96 19 -138 -19z"/>
<path d="M8699 2807 c-41 -27 -57 -78 -43 -134 24 -99 174 -112 218 -19 20 42
20 69 1 110 -31 65 -114 85 -176 43z"/>
<path d="M9315 2648 c-3 -7 -6 -71 -7 -143 l-3 -130 -92 -3 -93 -3 0 -64 0
-65 89 0 90 0 3 -337 c3 -328 4 -339 26 -388 29 -63 57 -93 107 -116 45 -21
138 -25 196 -9 49 14 109 68 142 129 l28 50 -63 29 -63 29 -23 -43 c-26 -51
-50 -66 -99 -62 -26 2 -42 11 -57 31 -20 27 -21 41 -24 358 l-3 329 140 0 141
0 0 65 0 65 -140 0 -140 0 0 145 0 145 -75 0 c-51 0 -77 -4 -80 -12z"/>
<path d="M8280 2464 c0 -58 -25 -134 -49 -148 -6 -4 -23 2 -37 13 -77 61 -261
88 -382 57 -114 -29 -179 -79 -229 -176 -26 -51 -28 -63 -28 -175 0 -115 1
-123 32 -185 l32 -64 -48 -51 c-57 -60 -75 -107 -69 -185 5 -69 35 -115 94
-145 22 -11 41 -21 44 -23 2 -2 -14 -20 -37 -41 -22 -21 -54 -58 -69 -81 -26
-38 -29 -53 -29 -119 0 -64 4 -81 24 -109 35 -50 96 -90 175 -115 61 -19 93
-22 236 -22 186 0 264 17 352 75 154 102 169 349 27 444 -74 50 -164 69 -405
86 -200 14 -264 41 -264 110 0 33 33 87 59 95 11 3 42 -1 68 -11 65 -22 229
-23 303 -1 111 33 188 105 224 211 22 65 22 205 1 266 -15 42 -15 46 2 55 39
22 99 93 111 132 13 45 16 122 4 139 -4 7 -37 15 -74 19 l-68 7 0 -58z m-253
-209 c69 -29 98 -70 113 -161 11 -66 -4 -166 -30 -209 -57 -93 -244 -111 -323
-31 -41 40 -57 93 -57 183 0 114 33 182 104 214 51 23 143 25 193 4z m-22
-926 c169 -16 226 -41 246 -108 35 -116 -93 -200 -302 -201 -166 0 -280 49
-295 127 -12 62 19 116 99 174 42 30 31 30 252 8z"/>
<path d="M10220 2394 c-171 -33 -258 -116 -263 -249 l-2 -49 60 -12 c93 -20
92 -20 99 36 12 93 88 140 223 140 126 -1 176 -55 189 -206 l7 -81 -94 -7
c-199 -15 -337 -59 -420 -133 -57 -52 -75 -82 -90 -152 -24 -114 29 -222 136
-276 55 -27 69 -30 160 -30 81 1 109 5 147 22 53 25 123 84 149 127 16 27 19
28 25 10 18 -56 28 -74 52 -96 34 -31 82 -48 139 -48 48 0 57 11 69 91 l7 39
-37 0 c-22 0 -43 7 -55 19 -17 17 -19 41 -23 317 -6 341 -12 376 -79 449 -62
67 -122 88 -259 91 -63 1 -126 0 -140 -2z m308 -628 c-8 -117 -72 -205 -177
-241 -150 -51 -274 31 -240 159 25 94 157 150 368 155 l54 1 -5 -74z"/>
<path d="M6850 2305 l0 -65 85 0 85 0 0 -355 0 -355 -75 0 -75 0 0 -65 0 -65
235 0 235 0 0 65 0 65 -75 0 -75 0 0 420 0 420 -170 0 -170 0 0 -65z"/>
<path d="M8530 2305 l0 -65 85 0 85 0 0 -355 0 -355 -75 0 -75 0 0 -65 0 -65
235 0 235 0 0 65 0 64 -72 3 -73 3 -3 418 -2 417 -170 0 -170 0 0 -65z"/>
</g>
</svg>
